<svg width="22" height="22" viewBox="0 0 22 22" fill="none" xmlns="http://www.w3.org/2000/svg">
<path fill-rule="evenodd" clip-rule="evenodd" d="M20.9971 11C20.9971 16.5228 16.5199 21 10.9971 21C5.47422 21 0.99707 16.5228 0.99707 11C0.99707 5.47715 5.47422 1 10.9971 1C16.5199 1 20.9971 5.47715 20.9971 11ZM11.3554 8.38244C10.3828 8.787 8.43884 9.62433 5.52364 10.8944C5.05025 11.0827 4.80228 11.2669 4.7797 11.4469C4.74155 11.7513 5.12266 11.8711 5.64163 12.0343C5.71222 12.0565 5.78536 12.0795 5.86034 12.1038C6.37092 12.2698 7.05775 12.464 7.4148 12.4717C7.73868 12.4787 8.10017 12.3452 8.49926 12.0711C11.223 10.2325 12.629 9.30318 12.7173 9.28314C12.7796 9.26901 12.8659 9.25124 12.9244 9.30321C12.9828 9.35518 12.9771 9.4536 12.9709 9.48001C12.9331 9.64096 11.4371 11.0318 10.663 11.7515C10.4216 11.9759 10.2505 12.135 10.2155 12.1714C10.1371 12.2528 10.0572 12.3298 9.98038 12.4038C9.50603 12.8611 9.15032 13.204 10.0001 13.764C10.4084 14.0331 10.7352 14.2556 11.0612 14.4776C11.4172 14.7201 11.7723 14.9619 12.2317 15.2631C12.3488 15.3398 12.4606 15.4195 12.5695 15.4971C12.9838 15.7925 13.356 16.0579 13.8159 16.0155C14.0831 15.991 14.3591 15.7397 14.4993 14.9903C14.8306 13.2193 15.4818 9.38205 15.6322 7.80081C15.6454 7.66228 15.6288 7.48498 15.6155 7.40715C15.6022 7.32932 15.5744 7.21842 15.4732 7.13633C15.3534 7.03911 15.1684 7.01861 15.0857 7.02C14.7096 7.0267 14.1325 7.22735 11.3554 8.38244Z" stroke="black" stroke-width="0.995408" stroke-linejoin="round"/>
</svg>
