<svg width="24" height="23" viewBox="0 0 24 23" fill="none" xmlns="http://www.w3.org/2000/svg">
<g filter="url(#filter0_d_361_27)">
<path d="M22 10.9999C22 5.47705 17.5229 0.999901 12 0.999901C6.47715 0.999901 2 5.47705 2 10.9999C2 15.9912 5.65686 20.1282 10.4375 20.8784V13.8905H7.89844V10.9999H10.4375V8.79678C10.4375 6.29053 11.9304 4.90615 14.2146 4.90615C15.3087 4.90615 16.4531 5.10146 16.4531 5.10146V7.5624H15.1921C13.9499 7.5624 13.5625 8.33324 13.5625 9.12406V10.9999H16.3359L15.8926 13.8905H13.5625V20.8784C18.3431 20.1282 22 15.9912 22 10.9999Z" stroke="black" stroke-width="0.995408" stroke-linejoin="round" shape-rendering="crispEdges"/>
</g>
<defs>
<filter id="filter0_d_361_27" x="-2.49756" y="0.501953" width="28.9951" height="28.874" filterUnits="userSpaceOnUse" color-interpolation-filters="sRGB">
<feFlood flood-opacity="0" result="BackgroundImageFix"/>
<feColorMatrix in="SourceAlpha" type="matrix" values="0 0 0 0 0 0 0 0 0 0 0 0 0 0 0 0 0 0 127 0" result="hardAlpha"/>
<feOffset dy="4"/>
<feGaussianBlur stdDeviation="2"/>
<feComposite in2="hardAlpha" operator="out"/>
<feColorMatrix type="matrix" values="0 0 0 0 0 0 0 0 0 0 0 0 0 0 0 0 0 0 0.25 0"/>
<feBlend mode="normal" in2="BackgroundImageFix" result="effect1_dropShadow_361_27"/>
<feBlend mode="normal" in="SourceGraphic" in2="effect1_dropShadow_361_27" result="shape"/>
</filter>
</defs>
</svg>
